<?xml version="1.0" encoding="UTF-8" standalone="no"?>
<!-- Created with Inkscape (http://www.inkscape.org/) -->

<svg
   xmlns:dc="http://purl.org/dc/elements/1.1/"
   xmlns:cc="http://creativecommons.org/ns#"
   xmlns:rdf="http://www.w3.org/1999/02/22-rdf-syntax-ns#"
   xmlns:svg="http://www.w3.org/2000/svg"
   xmlns="http://www.w3.org/2000/svg"
   version="1.1"
   width="715.74799"
   height="276.02362"
   id="svg17604">
  <defs
     id="defs17606">
    <clipPath
       id="clipPath16233">
      <path
         d="m 224.645,36 78.881,0 0,29.933 -78.881,0 0,-29.933 z"
         id="path16235" />
    </clipPath>
    <clipPath
       id="clipPath16221">
      <path
         d="m 224.645,36 78.88,0 0,29.933 -78.88,0 0,-29.933 z"
         id="path16223" />
    </clipPath>
  </defs>
  <metadata
     id="metadata17609">
    <rdf:RDF>
      <cc:Work
         rdf:about="">
        <dc:format>image/svg+xml</dc:format>
        <dc:type
           rdf:resource="http://purl.org/dc/dcmitype/StillImage" />
        <dc:title></dc:title>
      </cc:Work>
    </rdf:RDF>
  </metadata>
  <g
     transform="translate(-18.803722,-393.23756)"
     id="layer1">
    <g
       transform="matrix(7.1872993,0,0,7.1872993,-6652.2295,-4506.685)"
       id="g17673">
      <g
         transform="matrix(1.25,0,0,-1.25,647.85554,764.65769)"
         id="g16217"
         style="fill:#2254a0;fill-opacity:1">
        <g
           clip-path="url(#clipPath16221)"
           id="g16219"
           style="fill:#2254a0;fill-opacity:1">
          <g
             transform="translate(287.4697,61.0956)"
             id="g16225"
             style="fill:#2254a0;fill-opacity:1">
            <path
               d="m 0,0 c -0.116,0.248 -0.293,0.447 -0.524,0.602 0.25,0.262 0.438,0.549 0.563,0.856 C -0.02,1.215 -0.06,0.955 -0.06,0.662 -0.06,0.456 -0.03,0.227 0,0 m 14.049,-2.544 -4.647,0 c -1.109,0 -2.008,-0.899 -2.008,-2.008 l 0,-3.596 C 6.3,-8.167 5.289,-8.385 4.382,-8.771 c -0.069,0.039 -0.116,0.085 -0.148,0.135 0.641,0.162 1.16,0.475 1.543,0.94 0.412,0.503 0.63,1.156 0.63,1.889 l -0.073,0.742 c -0.164,0.82 -0.836,2.279 -2.185,3.948 0.106,0.187 0.273,0.48 0.273,0.48 0.095,0.134 0.38,0.602 0.38,1.22 0,0.164 -0.02,0.339 -0.07,0.521 C 4.531,1.853 3.945,2.417 2.992,2.779 1.674,3.28 0.908,2.792 0.569,2.456 0.401,2.29 0.274,2.084 0.174,1.857 0.21,2.02 0.236,2.185 0.236,2.35 0.236,2.504 0.22,2.659 0.188,2.813 0.061,3.422 -0.314,3.958 -0.869,4.322 -1.594,4.797 -2.568,4.953 -3.542,4.751 -4.513,4.548 -5.342,4.016 -5.818,3.29 -6.092,2.873 -6.234,2.408 -6.234,1.944 -6.234,1.79 -6.218,1.637 -6.186,1.485 -6.123,1.18 -5.973,0.9 -5.787,0.639 -6.027,0.519 -6.254,0.384 -6.47,0.233 -6.867,0.9 -7.551,1.305 -8.395,1.304 c -0.597,0 -1.233,-0.175 -1.883,-0.444 0.115,0.647 0.338,1.894 0.338,1.894 0,0.002 0.018,0.22 0.018,0.22 0,0.334 -0.13,0.648 -0.366,0.884 -0.287,0.289 -0.7,0.419 -1.103,0.347 l -1.963,-0.348 c -0.501,-0.089 -0.894,-0.468 -1.002,-0.965 0,0 -0.31,-1.417 -0.48,-2.194 -0.224,0.172 -0.463,0.323 -0.734,0.429 -1.209,0.472 -2.81,0.19 -4.156,-0.67 0.009,0.171 0.018,0.364 0.018,0.364 0,1.899 -0.55,3.222 -1.548,3.728 -1.79,0.909 -5.238,-0.583 -7.173,-3.94 -2.031,-3.525 -2.11,-7.228 -0.221,-8.729 -1.424,-0.132 -2.776,-0.438 -4.046,-0.899 l 0,4.467 c 0,1.109 -0.899,2.008 -2.008,2.008 l -4.646,0 c -0.411,0 -0.794,-0.124 -1.112,-0.337 -0.319,0.213 -0.701,0.337 -1.113,0.337 l -4.645,0 c -1.109,0 -2.008,-0.899 -2.008,-2.008 l 0,-0.28 c -0.095,0.014 -0.19,0.03 -0.29,0.03 l -4.499,0 c -0.592,0 -1.111,-0.268 -1.479,-0.676 -0.367,0.408 -0.886,0.676 -1.479,0.676 l -4.841,0 c -1.109,0 -2.008,-0.9 -2.008,-2.009 l 0,-11.224 c 0,-4.157 3.359,-7.061 8.169,-7.061 2.728,0 4.985,0.945 6.427,2.525 l 0,-0.261 c 0,-1.109 0.899,-2.008 2.008,-2.008 l 4.645,0 c 0.412,0 0.794,0.125 1.113,0.337 0.318,-0.212 0.701,-0.337 1.112,-0.337 l 4.646,0 c 0.83,0 1.544,0.505 1.849,1.224 1.216,-0.852 3.055,-1.457 5.827,-1.457 2.446,0 4.579,0.358 6.082,1.005 0.368,-0.467 0.931,-0.772 1.571,-0.772 l 4.646,0 c 1.109,0 2.008,0.899 2.008,2.008 l 0,2.164 c 1.346,-2.737 4.099,-4.405 7.674,-4.405 2.408,0 4.31,0.363 5.983,1.142 0.535,0.249 0.908,0.707 1.07,1.233 1.529,-1.525 3.765,-2.375 6.541,-2.375 2.671,0 4.627,0.351 6.34,1.138 0.713,0.327 1.17,1.04 1.17,1.825 l 0,17.558 c 0,1.109 -0.899,2.008 -2.008,2.008 M 6.332,-5.05 c 0,0 0.002,-0.012 0.002,-0.015 l 0,0 -0.002,0.015 z"
               id="path16227"
               style="fill:#2254a0;fill-opacity:1;fill-rule:nonzero;stroke:none" />
          </g>
        </g>
      </g>
      <g
         transform="matrix(1.25,0,0,-1.25,647.85554,764.65769)"
         id="g16229"
         style="fill:#ffeb0d;fill-opacity:1">
        <g
           clip-path="url(#clipPath16233)"
           id="g16231"
           style="fill:#ffeb0d;fill-opacity:1">
          <g
             transform="translate(261.6656,44.5971)"
             id="g16237"
             style="fill:#ffeb0d;fill-opacity:1">
            <path
               d="m 0,0 c -1.785,-0.14 -3.032,-0.559 -3.032,-2.305 0,-1.281 0.757,-1.839 2.029,-1.839 0.416,0 0.757,0.045 1.003,0.162 L 0,0 z m -1.224,-6.567 c -3.985,0 -6.136,1.327 -6.136,4.075 0,3.214 3.447,4.122 7.36,4.47 l 0,0.49 c 0,1.001 -0.759,1.281 -2.03,1.281 -1.272,0 -2.64,-0.372 -3.57,-0.769 l -0.953,2.492 c 1.002,0.396 2.836,0.978 5.427,0.978 3.229,0 5.453,-1.281 5.453,-4.843 l 0,-7.219 C 3.202,-6.171 1.271,-6.567 -1.224,-6.567"
               id="path16239"
               style="fill:#ffeb0d;fill-opacity:1;fill-rule:nonzero;stroke:none" />
          </g>
          <g
             transform="translate(232.8147,38.008)"
             id="g16241"
             style="fill:#ffeb0d;fill-opacity:1">
            <path
               d="m 0,0 c -3.447,0 -6.161,1.838 -6.161,5.052 l 0,11.225 4.841,0 0,-11.179 c 0,-1.14 0.611,-1.63 1.491,-1.63 0.929,0 1.467,0.513 1.467,1.655 l 0,11.154 4.499,0 0,-11.202 C 6.137,1.838 3.447,0 0,0"
               id="path16243"
               style="fill:#ffeb0d;fill-opacity:1;fill-rule:nonzero;stroke:none" />
          </g>
          <path
             d="m 241.25,56.544 4.645,0 0,-18.28 -4.645,0 0,18.28 z"
             id="path16245"
             style="fill:#ffeb0d;fill-opacity:1;fill-rule:nonzero;stroke:none" />
          <path
             d="m 248.12,56.544 4.645,0 0,-18.28 -4.645,0 0,18.28 z"
             id="path16247"
             style="fill:#ffeb0d;fill-opacity:1;fill-rule:nonzero;stroke:none" />
          <g
             transform="translate(275.0385,47.9265)"
             id="g16249"
             style="fill:#ffeb0d;fill-opacity:1">
            <path
               d="m 0,0 c -0.856,0.396 -1.687,0.42 -2.298,0.21 l 0,-9.873 -4.646,0 0,11.829 c 1.541,0.722 3.986,1.094 7.751,0.908 L 0,0 z"
               id="path16251"
               style="fill:#ffeb0d;fill-opacity:1;fill-rule:nonzero;stroke:none" />
          </g>
          <g
             transform="translate(281.9102,48.5088)"
             id="g16253"
             style="fill:#ffeb0d;fill-opacity:1">
            <path
               d="m 0,0 c -1.37,0 -2.128,-1.188 -1.981,-3.376 l 3.74,0.536 C 1.759,-0.931 1.173,0 0,0 m -1.639,-5.472 c 0.294,-1.351 1.051,-2.025 2.738,-2.025 1.565,0 2.788,0.325 3.521,0.674 l 1.027,-2.701 c -1.149,-0.535 -2.689,-0.954 -5.135,-0.954 -4.303,0 -6.576,2.77 -6.576,6.543 0,3.773 2.126,6.474 6.259,6.474 4.132,0 6.088,-2.725 5.842,-6.987 l -7.676,-1.024 z"
               id="path16255"
               style="fill:#ffeb0d;fill-opacity:1;fill-rule:nonzero;stroke:none" />
          </g>
          <g
             transform="translate(296.8722,48.4389)"
             id="g16257"
             style="fill:#ffeb0d;fill-opacity:1">
            <path
               d="m 0,0 c -0.195,0.047 -0.44,0.094 -0.733,0.094 -1.663,0 -2.347,-1.351 -2.347,-3.866 0,-2.608 0.733,-3.866 2.273,-3.866 0.343,0 0.612,0.024 0.807,0.117 L 0,0 z m -0.856,-10.408 c -4.083,0 -6.821,2.096 -6.821,6.496 0,3.935 2.446,6.427 5.82,6.427 0.806,0 1.465,-0.069 1.857,-0.186 l 0,5.776 4.646,0 0,-17.559 c -1.369,-0.629 -2.984,-0.954 -5.502,-0.954"
               id="path16259"
               style="fill:#ffeb0d;fill-opacity:1;fill-rule:nonzero;stroke:none" />
          </g>
          <g
             transform="translate(284.1549,63.7552)"
             id="g16261"
             style="fill:#ffeb0d;fill-opacity:1">
            <path
               d="M 0,0 C 0.261,0.334 0.651,0.463 0.875,0.289 1.098,0.116 1.068,-0.295 0.809,-0.629 0.548,-0.961 0.159,-1.091 -0.064,-0.918 -0.288,-0.744 -0.259,-0.333 0,0 M 0.602,-1.779 C 1.685,-1.553 2.436,-0.754 2.278,0.005 2.12,0.766 1.113,1.199 0.028,0.973 -1.056,0.748 -1.806,-0.052 -1.647,-0.811 -1.49,-1.572 -0.483,-2.005 0.602,-1.779"
               id="path16263"
               style="fill:#ffeb0d;fill-opacity:1;fill-rule:nonzero;stroke:none" />
          </g>
          <g
             transform="translate(289.7745,55.3297)"
             id="g16265"
             style="fill:#ffeb0d;fill-opacity:1">
            <path
               d="m 0,0 c -0.974,0.085 -1.533,0.634 -1.707,1.359 0.532,0.752 1.015,1.576 1.452,2.287 C 0.061,3.267 1.886,-0.163 0,0 m -7.539,0.345 c -1.148,0.325 -0.3,3.383 1.233,4.258 0.271,0.155 0.774,0.387 1.239,0.078 0.338,-0.225 -0.997,-4.753 -2.472,-4.336 m -7.167,1.611 c 0.599,1.398 2.352,2.908 3.236,2.464 0.787,-0.397 -1.491,-2.758 -3.236,-2.464 m -4.943,2.466 c 1.113,0.188 0.842,-1.059 0.524,-1.604 -0.574,-0.98 -2.358,-0.871 -2.358,-0.871 0,0 0.164,2.191 1.834,2.475 M 2.803,0.563 c -0.098,0.493 -0.671,2.06 -2.472,4.062 0.442,0.751 0.717,1.262 0.717,1.262 0,0 0.797,0.986 -0.805,1.596 C -2.1,8.373 -0.697,4.55 -0.697,4.55 -2.093,2.821 -3.557,0.307 -4.171,0.205 c -0.591,-0.098 -0.321,0.839 0.076,2.153 0.764,1.99 0.911,2.928 0.525,3.123 -0.622,0.316 -1.444,0.406 -1.842,0.406 -3.533,0 -5.002,-3.257 -4.365,-5.697 -0.556,-0.588 -1.271,-0.6 -1.784,-0.57 -0.829,0.048 -1.23,0.955 -1.405,1.548 l 0.011,0 c 2.884,0.203 4.47,4.76 2.257,4.758 -1.472,-0.001 -2.9,-1.113 -3.615,-1.771 L -13.478,8.846 -15.439,8.498 -17.21,0.4 c -0.409,-0.296 -1.747,-1.167 -3.039,-0.943 -1.36,0.237 -1.242,1.482 -1.228,1.528 0,0 2.185,-0.093 3.4,1.015 0.622,0.568 1.62,3.102 -0.254,3.835 -1.313,0.513 -3.788,-0.359 -4.708,-2.472 -0.386,-0.887 -0.502,-1.532 -0.37,-2.591 0.131,-1.06 0.984,-2.129 2.027,-2.337 2.049,-0.408 3.374,0.301 3.887,0.719 l -0.182,-0.776 c 0,0 0.648,0.055 1.347,0.045 0.666,-0.009 1.056,-0.012 1.056,-0.012 l 0.388,2.533 c 0.358,-0.654 1.307,-2.331 2.428,-2.559 1.324,-0.269 2.593,0.356 3.008,0.987 0.309,-0.644 0.975,-0.941 1.697,-0.941 0.609,0 1.169,0.275 1.668,0.718 0.248,-0.328 0.663,-0.718 1.231,-0.718 0.611,0 1.458,0.803 2.318,1.883 0.068,-0.188 0.761,-1.956 3.359,-1.956 2.255,0 2.077,1.712 1.98,2.205"
               id="path16267"
               style="fill:#ffeb0d;fill-opacity:1;fill-rule:nonzero;stroke:none" />
          </g>
          <g
             transform="translate(266.3916,60.5504)"
             id="g16269"
             style="fill:#ffeb0d;fill-opacity:1">
            <path
               d="M 0,0 C 0.317,1.985 -0.021,3.72 -0.743,4.086 -1.788,4.615 -4.568,3.585 -6.267,0.637 -7.966,-2.311 -8.17,-5.53 -6.723,-6.553 c 0.942,-0.665 2.35,-0.237 3.687,0.954 l -0.342,-2.018 c 0,0 0.727,-0.189 1.167,-0.398 0.439,-0.211 0.98,-0.64 0.98,-0.64 l 0.542,6.367 -2.645,0.618 -0.376,-1.175 0.657,-0.027 c -0.624,-1.725 -1.051,-2.646 -1.601,-2.409 -0.66,0.286 -0.923,1.779 -0.259,3.96 0.745,2.448 1.579,4.027 2.217,3.868 0.523,-0.131 0.541,-1.077 0.256,-2.676 L 0,0 z"
               id="path16271"
               style="fill:#ffeb0d;fill-opacity:1;fill-rule:nonzero;stroke:none" />
          </g>
        </g>
      </g>
    </g>
  </g>
</svg>
