<?xml version="1.0" encoding="UTF-8" standalone="no"?>
<!-- Generator: Adobe Illustrator 24.1.1, SVG Export Plug-In . SVG Version: 6.00 Build 0)  -->

<svg
   version="1.1"
   id="Lager_1"
   x="0px"
   y="0px"
   viewBox="0 0 439.90252 92.332414"
   xml:space="preserve"
   sodipodi:docname="trafikverket-logo.svg"
   width="439.90253"
   height="92.332413"
   inkscape:version="1.4.2 (f4327f4, 2025-05-13)"
   xmlns:inkscape="http://www.inkscape.org/namespaces/inkscape"
   xmlns:sodipodi="http://sodipodi.sourceforge.net/DTD/sodipodi-0.dtd"
   xmlns="http://www.w3.org/2000/svg"
   xmlns:svg="http://www.w3.org/2000/svg"><defs
   id="defs35"><clipPath
     clipPathUnits="userSpaceOnUse"
     id="clipPath43"><rect
       style="fill:#000000;fill-opacity:1;stroke-width:1.07225"
       id="rect44"
       width="442.76227"
       height="95.913696"
       x="63.096344"
       y="81.771408"
       ry="0" /></clipPath></defs><sodipodi:namedview
   id="namedview35"
   pagecolor="#ffffff"
   bordercolor="#000000"
   borderopacity="0.25"
   inkscape:showpageshadow="2"
   inkscape:pageopacity="0.0"
   inkscape:pagecheckerboard="0"
   inkscape:deskcolor="#d1d1d1"
   showgrid="false"
   inkscape:zoom="3.8999591"
   inkscape:cx="183.20705"
   inkscape:cy="14.615538"
   inkscape:window-width="2880"
   inkscape:window-height="1514"
   inkscape:window-x="-11"
   inkscape:window-y="-11"
   inkscape:window-maximized="1"
   inkscape:current-layer="g29" />

<g
   id="g29"
   transform="rotate(-0.2795713,-17056.62,13172.232)"
   style="fill:#000000">
	<path
   style="fill:#000000"
   d="m 199.863,141.953 c -1.326,1.571 -3.682,1.545 -5.763,1.639 h -3.279 c -1.786,0.248 -2.997,1.496 -2.997,1.496 v -16.571 h 6.112 c 0.617,0 1.5,0.017 1.816,0.024 1.284,0.047 2.979,0.383 3.835,1.316 1.475,1.618 1.514,3.681 1.514,5.993 v 0.255 c 0,2.745 -0.269,4.7 -1.238,5.848 m 8.262,15.01 c 0,-1.653 -0.447,-2.224 -0.447,-2.224 h -1.131 c -0.501,0 -1.055,-0.08 -1.444,-0.352 -0.532,-0.372 -0.777,-0.777 -1.267,-1.555 -0.513,-0.815 -3.365,-5.432 -3.365,-5.432 2.167,-0.677 4.08,-1.621 5.436,-4.602 0.758,-1.669 1.031,-4.338 1.031,-6.589 0,-2.302 -0.257,-6.815 -2.286,-9.049 -1.646,-1.816 -4.17,-3.055 -9.135,-3.055 h -13.459 v 34.501 c 0,0 0.74,0.579 2.882,0.579 2.143,0 2.883,-0.579 2.883,-0.579 v -10.608 h 6.846 c 0,0 4.673,7.563 5.504,8.888 0.706,1.125 1.293,1.506 2.071,1.86 0.66,0.3 1.44,0.44 2.266,0.44 1.075,0 3.168,0.001 3.168,0.001 0,0 0.447,-0.57 0.447,-2.224"
   id="path1" />
	<path
   style="fill:#000000"
   d="m 402.891,141.953 c -1.326,1.571 -3.681,1.545 -5.762,1.639 h -3.279 c -1.786,0.248 -2.997,1.496 -2.997,1.496 v -16.571 h 6.112 c 0.616,0 1.5,0.017 1.816,0.024 1.284,0.047 2.979,0.383 3.835,1.316 1.475,1.618 1.513,3.681 1.513,5.993 v 0.255 c 0,2.745 -0.269,4.7 -1.238,5.848 m 8.263,15.01 c 0,-1.653 -0.447,-2.224 -0.447,-2.224 h -1.131 c -0.5,0 -1.055,-0.08 -1.443,-0.352 -0.532,-0.372 -0.777,-0.777 -1.268,-1.555 -0.512,-0.815 -3.365,-5.432 -3.365,-5.432 2.167,-0.677 4.079,-1.621 5.436,-4.602 0.758,-1.669 1.031,-4.338 1.031,-6.589 0,-2.302 -0.258,-6.815 -2.286,-9.049 -1.647,-1.816 -4.171,-3.055 -9.135,-3.055 h -13.459 v 34.501 c 0,0 0.739,0.579 2.882,0.579 2.143,0 2.884,-0.579 2.884,-0.579 v -10.608 h 6.845 c 0,0 4.674,7.563 5.504,8.888 0.706,1.125 1.293,1.506 2.072,1.86 0.66,0.3 1.439,0.44 2.264,0.44 1.076,0 3.169,0.001 3.169,0.001 0,0 0.447,-0.57 0.447,-2.224"
   id="path2" />
	<path
   style="fill:#000000"
   d="m 270.79,124.105 h -21.606 l 0.003,34.502 c 0,0 0.739,0.579 2.882,0.579 2.143,0 2.883,-0.579 2.883,-0.579 l -0.003,-15.143 h 12.35 c 0,0 0.444,-0.566 0.444,-2.207 0,-1.639 -0.444,-2.207 -0.444,-2.207 h -9.36 c -1.769,0.246 -2.99,1.495 -2.99,1.495 v -12.028 h 15.841 c 0,0 0.444,-0.567 0.444,-2.206 0,-1.639 -0.444,-2.206 -0.444,-2.206"
   id="path3" />
	<path
   style="fill:#000000"
   d="M 175.521,124.105 H 149.25 c 0,0 -0.443,0.567 -0.443,2.206 0,1.639 0.443,2.206 0.443,2.206 h 10.256 v 30.088 c 0,0 0.746,0.58 2.883,0.58 2.138,0 2.88,-0.58 2.88,-0.58 v -30.088 h 10.251 c 0,0 0.443,-0.567 0.443,-2.206 0,-1.639 -0.442,-2.206 -0.442,-2.206"
   id="path4" />
	<path
   style="fill:#000000"
   d="m 503.325,124.105 h -25.742 c 0,0 -0.444,0.567 -0.444,2.206 0,1.639 0.444,2.206 0.444,2.206 h 10.256 v 30.088 c 0,0 0.746,0.58 2.883,0.58 2.138,0 2.879,-0.58 2.879,-0.58 v -30.088 h 9.724 c 0,0 0.443,-0.567 0.443,-2.206 0,-1.639 -0.443,-2.206 -0.443,-2.206"
   id="path5" />
	<path
   style="fill:#000000"
   d="m 379.519,156.98 c 0,-1.64 -0.444,-2.207 -0.444,-2.207 H 362.15 v -11.309 h 13.432 c 0,0 0.445,-0.566 0.445,-2.207 0,-1.639 -0.445,-2.205 -0.445,-2.205 h -10.434 c -1.796,0.244 -2.998,1.494 -2.998,1.494 v -12.028 l 16.171,-0.002 c 0,0 0.444,-0.567 0.444,-2.206 0,-1.639 -0.444,-2.206 -0.444,-2.206 l -21.927,0.001 v 35.08 l 22.68,0.001 c 10e-4,0.001 0.445,-0.566 0.445,-2.206"
   id="path6" />
	<path
   style="fill:#000000"
   d="m 472.732,156.98 c 0,-1.64 -0.444,-2.207 -0.444,-2.207 h -16.925 v -11.309 h 13.432 c 0,0 0.445,-0.566 0.445,-2.207 0,-1.639 -0.445,-2.205 -0.445,-2.205 h -10.434 c -1.796,0.244 -2.998,1.494 -2.998,1.494 v -12.028 l 16.171,-0.002 c 0,0 0.444,-0.567 0.444,-2.206 0,-1.639 -0.444,-2.206 -0.444,-2.206 l -21.927,0.001 v 35.08 l 22.68,0.001 c 0.002,0.001 0.445,-0.566 0.445,-2.206"
   id="path7" />
	<path
   style="fill:#000000"
   d="m 277.638,124.685 c 0,0 0.744,-0.579 2.887,-0.579 2.143,0 2.885,0.579 2.885,0.579 v 33.922 c 0,0 -0.742,0.579 -2.885,0.579 -2.143,0 -2.887,-0.579 -2.887,-0.579 z"
   id="path8" />
	<path
   style="fill:#000000"
   d="m 291.649,158.607 c 0,0 0.737,0.58 2.88,0.58 2.143,0 2.879,-0.58 2.879,-0.58 v -15.143 h 3.786 c 0,0 7.568,12.098 8.398,13.422 0.706,1.125 1.293,1.507 2.072,1.861 0.66,0.3 1.439,0.44 2.265,0.44 h 3.168 c 0,0 0.447,-0.571 0.447,-2.224 0,-1.653 -0.447,-2.224 -0.447,-2.224 h -1.13 c -0.5,0 -1.055,-0.079 -1.443,-0.35 -0.532,-0.372 -0.777,-0.777 -1.268,-1.555 -0.512,-0.815 -7.332,-11.772 -7.332,-11.772 l 10.83,-16.956 h -6.044 l -9.728,15.256 h -3.574 v -14.676 c 0,0 -0.736,-0.581 -2.879,-0.581 -2.143,0 -2.88,0.581 -2.88,0.581 z"
   id="path9" />
	<path
   style="fill:#000000"
   d="m 417.479,158.607 c 0,0 0.737,0.58 2.88,0.58 2.143,0 2.879,-0.58 2.879,-0.58 v -15.143 h 3.787 c 0,0 7.568,12.098 8.398,13.422 0.706,1.125 1.293,1.507 2.072,1.861 0.66,0.3 1.439,0.44 2.265,0.44 h 3.168 c 0,0 0.447,-0.571 0.447,-2.224 0,-1.653 -0.447,-2.224 -0.447,-2.224 h -1.13 c -0.5,0 -1.055,-0.079 -1.443,-0.35 -0.532,-0.372 -0.777,-0.777 -1.268,-1.555 -0.512,-0.815 -7.332,-11.772 -7.332,-11.772 l 10.83,-16.956 h -6.044 l -9.727,15.256 h -3.574 v -14.676 c 0,0 -0.736,-0.581 -2.879,-0.581 -2.143,0 -2.88,0.581 -2.88,0.581 v 33.921 z"
   id="path10" />
	<path
   style="fill:#000000"
   d="m 349.776,131.736 c 0.184,-2.14 0.243,-5.107 0.257,-7.05 0,0 -0.789,-0.58 -3.07,-0.58 -2.279,0 -3.069,0.58 -3.069,0.58 -0.027,1.948 -0.162,5.106 -0.345,8.657 -0.215,3.07 -0.921,6.287 -2.096,9.456 -1.416,3.836 -5.033,10.441 -5.033,10.441 h -0.708 c 0,0 -2.606,-4.784 -5.037,-10.441 -0.799,-1.866 -1.97,-7.151 -2.088,-9.483 -0.182,-3.552 -0.319,-6.683 -0.346,-8.631 0,0 -0.789,-0.58 -3.068,-0.58 -2.281,0 -3.07,0.58 -3.07,0.58 0.015,1.943 0.074,4.9 0.257,7.041 0.186,1.847 0.554,5.647 1.567,8.428 2.065,5.673 9.671,19.032 9.671,19.032 h 4.928 c 0,0 7.699,-13.36 9.685,-19.032 0.917,-2.617 1.336,-5.822 1.565,-8.418"
   id="path11" />
	<path
   style="fill:#000000"
   d="m 228.397,130.054 c -0.853,1.725 -2.708,5.155 -3.602,7.178 -1.271,2.862 -2.54,6.529 -3.198,9.746 0,0 1.249,-1.249 3.043,-1.498 h 10.906 c -0.708,-3.055 -1.897,-6.021 -2.841,-8.247 -1.078,-2.545 -2.781,-5.6 -3.588,-7.178 h -0.72 z m 8.7,28.553 c -0.045,-2.166 -0.631,-8.711 -0.631,-8.711 h -15.423 c 0,0 -0.589,6.357 -0.665,8.711 0,0 -0.662,0.58 -2.81,0.58 -2.148,0 -3.339,-0.58 -3.339,-0.58 0,-0.636 0.165,-5.31 0.579,-8.332 0.966,-7.031 4.015,-12.216 4.787,-13.815 0.827,-1.705 4.311,-8.656 6.78,-12.353 h 4.758 c 2.304,3.374 5.985,10.718 6.777,12.353 0.766,1.584 3.531,7.649 4.255,13.815 0.363,3.059 0.532,6.743 0.503,8.332 0,0 -0.646,0.58 -2.786,0.58 -2.139,0 -2.785,-0.58 -2.785,-0.58"
   id="path12" />
	<g
   id="g28"
   style="fill:#ff0000">
		<path
   style="fill:#ff0000"
   d="m 95.991,175.872 c 20.533,0 29.847,-15.163 30.448,-19.666 -3.34,4.83 -16.026,12.131 -30.448,12.131 -14.42,0 -27.105,-7.301 -30.451,-12.131 0.604,4.503 9.917,19.666 30.451,19.666"
   id="path13" />
		<path
   style="fill:#ff0000"
   d="m 95.991,86.351 c -0.425,0 -0.783,0.349 -0.783,0.781 0,0.433 0.358,0.788 0.783,0.788 0.434,0 0.791,-0.355 0.791,-0.788 0,-0.432 -0.358,-0.781 -0.791,-0.781"
   id="path14" />
		<path
   style="fill:#ff0000"
   d="M 95.991,98.328"
   id="path15" />
		<path
   style="fill:#ff0000"
   d="m 100.364,98.759 c 0,-0.142 0.234,-0.304 0.456,-0.304 5.037,2.116 9.601,5.714 12.607,9.323 2.025,2.429 3.276,5.462 2.77,8.138 -0.423,2.239 -2.397,3.814 -4.636,3.499 -2.258,-0.312 -3.76,-2.38 -3.493,-4.64 0.269,-2.379 2.641,-3.398 2.641,-3.398 -1.667,-6.309 -6.158,-10.398 -10.345,-12.618"
   id="path16" />
		<path
   style="fill:#ff0000"
   d="m 91.616,98.759 c 0,-0.142 -0.234,-0.304 -0.456,-0.304 -5.037,2.116 -9.601,5.714 -12.607,9.323 -2.024,2.429 -3.276,5.462 -2.77,8.138 0.423,2.239 2.397,3.814 4.636,3.499 2.258,-0.312 3.76,-2.38 3.493,-4.64 -0.269,-2.379 -2.641,-3.398 -2.641,-3.398 1.667,-6.309 6.157,-10.398 10.345,-12.618"
   id="path17" />
		<path
   style="fill:#ff0000"
   d="m 95.481,99.915 c -1.271,4.028 -3.68,12.158 -3.68,14.622 0,2.465 1.726,4.463 4.19,4.463 2.464,0 4.192,-1.998 4.192,-4.463 0,-2.464 -2.411,-10.594 -3.683,-14.622 -0.231,-0.17 -0.755,-0.17 -1.019,0"
   id="path18" />
		<path
   style="fill:#ff0000"
   d="m 101.801,132.259 c 3.079,0 13.527,0.313 13.527,0.313 3.738,-1.133 5.636,-3.742 6.254,-8.453 0,0 -11.97,-0.556 -25.591,-0.556 -13.621,0 -25.484,0.556 -25.484,0.556 0.612,4.71 2.513,7.319 6.247,8.453 0,0 10.446,-0.313 13.53,-0.313 v 24.051 c 0,1.189 2.609,2.877 5.708,2.877 3.099,0 5.81,-1.672 5.81,-2.877 v -17.983 c -1.276,-4.043 -4.656,-6.031 -4.664,-6.099 z"
   id="path19" />
		<path
   style="fill:#ff0000"
   d="m 95.991,85.66 c 0.588,0 1.064,-0.477 1.064,-1.062 0,-0.588 -0.476,-1.059 -1.064,-1.059 -0.575,0 -1.052,0.471 -1.052,1.059 0,0.585 0.477,1.062 1.052,1.062"
   id="path20" />
		<path
   style="fill:#ff0000"
   d="m 93.465,88.195 c 0.586,0 1.051,-0.477 1.051,-1.063 0,-0.579 -0.466,-1.058 -1.051,-1.058 -0.591,0 -1.064,0.479 -1.064,1.058 0.001,0.585 0.474,1.063 1.064,1.063"
   id="path21" />
		<path
   style="fill:#ff0000"
   d="m 98.536,88.195 c 0.585,0 1.053,-0.477 1.053,-1.063 0,-0.579 -0.468,-1.058 -1.053,-1.058 -0.59,0 -1.062,0.479 -1.062,1.058 0,0.585 0.473,1.063 1.062,1.063"
   id="path22" />
		<path
   style="fill:#ff0000"
   d="m 72.541,146.838 c 0,0 -1.619,-6.485 -7.348,-6.189 -2.195,4.2 -1.267,8.565 1.384,12.624 2.363,3.601 8.31,7.572 12.535,8.121 0.001,0.001 -9.136,-6.668 -6.571,-14.556"
   id="path23" />
		<path
   style="fill:#ff0000"
   d="m 119.44,146.838 c 0,0 1.624,-6.485 7.349,-6.189 2.196,4.2 1.267,8.573 -1.383,12.624 -2.362,3.601 -8.31,7.572 -12.535,8.121 -10e-4,0.001 9.135,-6.668 6.569,-14.556"
   id="path24" />
		<path
   style="fill:#ff0000"
   d="m 95.991,90.732 c 0.588,0 1.064,-0.476 1.064,-1.06 0,-0.587 -0.476,-1.064 -1.064,-1.064 -0.575,0 -1.052,0.477 -1.052,1.064 0,0.584 0.477,1.06 1.052,1.06"
   id="path25" />
		<path
   style="fill:#ff0000"
   d="m 95.991,96.986 c 1.562,0 2.827,-1.259 2.827,-2.814 0,-1.567 -1.265,-2.82 -2.827,-2.82 -1.553,0 -2.821,1.253 -2.821,2.82 -0.001,1.556 1.267,2.814 2.821,2.814"
   id="path26" />
		<path
   style="fill:#ff0000"
   d="m 128.037,108.961 c -4.638,-5.397 -13.698,-10.081 -25.558,-12.23 -0.134,0.061 -0.255,0.163 -0.241,0.349 11.161,2.938 17.091,7.117 22.516,13.156 -1.591,0.47 -2.948,1.648 -3.586,3.316 -1.005,2.612 0.277,5.406 3.056,6.842 z"
   id="path27" />
		<path
   style="fill:#ff0000"
   d="m 63.945,108.961 c 4.636,-5.397 13.694,-10.081 25.558,-12.23 0.136,0.061 0.256,0.163 0.244,0.349 -11.163,2.938 -17.094,7.117 -22.519,13.156 1.589,0.47 2.949,1.648 3.588,3.316 1.003,2.612 -0.278,5.406 -3.06,6.842 z"
   id="path28" />
	</g>
</g>
<g
   id="g30"
   transform="translate(-63.665081,-83.187029)"
   style="fill:#000000">
</g>
<g
   id="g31"
   transform="translate(-63.665081,-83.187029)"
   style="fill:#000000">
</g>
<g
   id="g32"
   transform="translate(-63.665081,-83.187029)"
   style="fill:#000000">
</g>
<g
   id="g33"
   transform="translate(-63.665081,-83.187029)"
   style="fill:#000000">
</g>
<g
   id="g34"
   transform="translate(-63.665081,-83.187029)"
   style="fill:#000000">
</g>
<g
   id="g35"
   transform="translate(-63.665081,-83.187029)"
   style="fill:#000000">
</g>
</svg>
