<svg xmlns="http://www.w3.org/2000/svg" viewBox="0 0 675.02 205.9"><defs><style>.cls-3{fill:#414042}</style><linearGradient id="Traficom_liukuväri_rgb" x1="636.57" y1="78.73" x2="38.46" y2="78.73" gradientUnits="userSpaceOnUse"><stop offset="0" stop-color="#0058b1"/><stop offset=".21" stop-color="#005ab1"/><stop offset=".29" stop-color="#0161b0"/><stop offset=".35" stop-color="#016cae"/><stop offset=".39" stop-color="#027dac"/><stop offset=".43" stop-color="#0493a9"/><stop offset=".43" stop-color="#0496a9"/><stop offset=".56" stop-color="#0496a9"/><stop offset=".57" stop-color="#0596a2"/><stop offset=".62" stop-color="#0a9681"/><stop offset=".67" stop-color="#0e9666"/><stop offset=".73" stop-color="#119651"/><stop offset=".8" stop-color="#139642"/><stop offset=".88" stop-color="#15963a"/><stop offset="1" stop-color="#159637"/></linearGradient></defs><g id="Traficom_pysty"><g id="Su_väri"><path fill="none" d="M0 0h675.02v205.9H0z"/><path d="M514 87.2a24 24 0 0 1-44.93 0h-17a40.32 40.32 0 0 0 78.88 0zM38.46 40.48v14.75h23.61v62.17h14.74V55.23h22.85V40.48zm319.21 0v76.7H373v-76.7zm-244.48 0v13.1h28c10.52 0 15 3.26 15 10.91 0 7.08-3.8 10.48-12.32 11h-30.69v41.68h15.9V90.32h13.6l14.82 26.86h17l-14.73-26.86h39.5l-11.33 26.86h16.22l11.33-26.86h23.85l11.32 26.86h16.22l-11.32-26.86H287v26.86h15.3V90.32h31.08V75.45h-84.09l-14.59-34.6h-16.22l14.6 34.62h-63.52A24.93 24.93 0 0 0 172 64c0-15.86-9.84-23.57-30.07-23.57zm173.76 0v15.85h52.17V40.47zm319.67 0L589 93.87l-17.61-53.4H552l-10.59 76.7h15.39l7.29-51.6 17 51.6h15.77l17-51.6 7.28 51.6h15.37L626 40.47zM451.73 72.94h16.61a24 24 0 0 1 46.46 0h16.61a40.27 40.27 0 0 0-79.68 0m-62.19 5.68a40.32 40.32 0 0 0 55.83 37.22l-8.28-14.34a24 24 0 1 1 .06-45.73l8.28-14.34a40.33 40.33 0 0 0-55.89 37.19" fill="url(#Traficom_liukuväri_rgb)"/><path class="cls-3" d="M229.88 138.68v20.19h10.77v2.35h-13.46v-22.54zM247.72 138.68v2.57h-2.57v-2.57zm0 6.26v16.27h-2.57v-16.27zM256.08 138.68v2.57h-2.57v-2.57zm0 6.26v16.27h-2.57v-16.27zM267.66 153.61l-3.22 3.63v4h-2.57v-23.19h2.57v16.18l8-9.29h2.79l-5.88 6.92 6.38 9.36h-2.85zM292.41 153.92h-12.26a5.57 5.57 0 0 0 5.95 5.32 13.93 13.93 0 0 0 4.94-1l.66 2a14.51 14.51 0 0 1-5.85 1.22c-4.66 0-8.29-3.07-8.29-8.45s3.94-8.45 7.79-8.45c4.19 0 7.17 3.07 7.17 7.86a9.51 9.51 0 0 1-.11 1.5zm-12.24-2.13h9.7c-.09-3.16-2-4.91-4.54-4.91-2.65 0-4.71 1.62-5.15 4.91zM310.82 150.85v10.36h-2.57V151.1c0-2.82-1.5-4.19-3.79-4.19a9.47 9.47 0 0 0-4.76 1.35v13h-2.57v-16.32h2.35v1.19a11.41 11.41 0 0 1 5.6-1.5 5.71 5.71 0 0 1 4.26 1.53c1.13 1.12 1.48 2.63 1.48 4.69zM330.13 150.85v10.36h-2.57V151.1c0-2.82-1.5-4.19-3.79-4.19a9.47 9.47 0 0 0-4.76 1.35v13h-2.57v-16.32h2.35v1.19a11.42 11.42 0 0 1 5.6-1.5 5.71 5.71 0 0 1 4.26 1.53c1.14 1.12 1.48 2.63 1.48 4.69zM349.57 153.92H337.3a5.57 5.57 0 0 0 5.95 5.32 13.93 13.93 0 0 0 4.94-1l.66 2a14.51 14.51 0 0 1-5.85 1.22c-4.66 0-8.29-3.07-8.29-8.45s3.94-8.45 7.79-8.45c4.19 0 7.17 3.07 7.17 7.86a9.51 9.51 0 0 1-.1 1.5zm-12.24-2.13H347c-.09-3.16-2-4.91-4.54-4.91-2.63 0-4.69 1.62-5.13 4.91zM361.09 150.38v2.25h-7.6v-2.25zM376.58 166.31a4.36 4.36 0 0 1-3.22 1.16 7.2 7.2 0 0 1-2.75-.53l.53-2a6.06 6.06 0 0 0 1.88.28c1.41 0 2.16-.69 2.16-2.75v-17.53h2.57v17.71a4.9 4.9 0 0 1-1.17 3.66zm1.16-27.63v2.57h-2.57v-2.57zM396 161.09v.13h-2.5a6.16 6.16 0 0 1-.31-1 11.11 11.11 0 0 1-5 1.31c-3.72 0-5.85-1.78-5.85-5.13 0-3.07 2.63-5.13 7-5.13a20.77 20.77 0 0 1 3.44.25v-.69c0-2.69-1.5-3.91-4-3.91a14.25 14.25 0 0 0-4.88.88l-.78-2a15.64 15.64 0 0 1 5.85-1.19 6.56 6.56 0 0 1 4.88 1.63 5.8 5.8 0 0 1 1.47 4.35v5.63a14.63 14.63 0 0 0 .68 4.87zm-7.51-1.82a9 9 0 0 0 4.26-1v-4.69a16 16 0 0 0-3.38-.28c-3 0-4.41 1.19-4.41 3.13s1.2 2.84 3.51 2.84zM410.95 144.94l3.1 8.14 1.91 5.07 1.85-5.07 3.07-8.14h2.69l-6.38 16.27h-2.6l-6.45-16.27zM429.91 138.68v2.57h-2.57v-2.57zm0 6.26v16.27h-2.57v-16.27zM449.47 153.92h-12.26a5.57 5.57 0 0 0 5.95 5.32 13.92 13.92 0 0 0 4.94-1l.66 2a14.51 14.51 0 0 1-5.85 1.22c-4.66 0-8.29-3.07-8.29-8.45s3.94-8.45 7.79-8.45c4.19 0 7.17 3.07 7.17 7.86a9.51 9.51 0 0 1-.11 1.5zm-12.24-2.13h9.7c-.09-3.16-2-4.91-4.54-4.91-2.65 0-4.71 1.62-5.15 4.91zM464.37 145.66l-.72 2a12.62 12.62 0 0 0-4.57-.85c-2.07 0-3.35.81-3.35 2.1s.63 2.07 3.54 2.82c4.51 1.16 6.13 2.57 6.13 5.07 0 2.88-2.47 4.73-6.63 4.73a20.3 20.3 0 0 1-6.2-1.06l.72-2a18.53 18.53 0 0 0 5.48.88c2.72 0 4.1-.88 4.1-2.41 0-1.19-1-2.13-4.41-3-4.1-1-5.26-2.54-5.26-4.82 0-2.57 2.25-4.51 5.88-4.51a14.09 14.09 0 0 1 5.29 1.05zM478.08 160.93a9.6 9.6 0 0 1-3.19.59 4.38 4.38 0 0 1-3.13-1.06 4.49 4.49 0 0 1-1.1-3.38v-9.92H468v-2.22h2.69v-4.1h2.57v4.1h4.13v2.22h-4.13v9.64c0 1.75.75 2.5 2.1 2.5a8.6 8.6 0 0 0 2.32-.41zM484.59 138.68v2.57H482v-2.57zm0 6.26v16.27H482v-16.27zM504 150.85v10.36h-2.57V151.1c0-2.82-1.5-4.19-3.79-4.19a9.47 9.47 0 0 0-4.76 1.35v13h-2.57v-16.32h2.35v1.19a11.42 11.42 0 0 1 5.6-1.5 5.7 5.7 0 0 1 4.26 1.53c1.13 1.12 1.48 2.63 1.48 4.69zM517.62 160.93a9.6 9.6 0 0 1-3.19.59 4.38 4.38 0 0 1-3.13-1.06 4.49 4.49 0 0 1-1.1-3.38v-9.92h-2.69v-2.22h2.69v-4.1h2.57v4.1h4.13v2.22h-4.13v9.64c0 1.75.75 2.5 2.1 2.5a8.6 8.6 0 0 0 2.32-.41zM534.23 161.09v.13h-2.5a6.16 6.16 0 0 1-.31-1 11.11 11.11 0 0 1-5 1.31c-3.72 0-5.85-1.78-5.85-5.13 0-3.07 2.63-5.13 7-5.13a20.77 20.77 0 0 1 3.44.25v-.69c0-2.69-1.5-3.91-4-3.91a14.25 14.25 0 0 0-4.88.88l-.78-2a15.64 15.64 0 0 1 5.85-1.19 6.56 6.56 0 0 1 4.88 1.63 5.8 5.8 0 0 1 1.47 4.35v5.63a14.63 14.63 0 0 0 .68 4.87zM525 141.24h-2.57v-2.57H525zm1.69 18a9 9 0 0 0 4.26-1v-4.69a16 16 0 0 0-3.38-.28c-3 0-4.41 1.19-4.41 3.13s1.25 2.87 3.56 2.87zm5.82-18H530v-2.57h2.57zM539.31 144.94l3.1 8.14 1.91 5.07 1.85-5.07 3.07-8.14h2.69l-6.38 16.27h-2.6l-6.45-16.27zM558.24 138.68v2.57h-2.57v-2.57zm0 6.26v16.27h-2.57v-16.27zM566.54 149.07v12.14H564v-16.27h2.35v1.91a16.54 16.54 0 0 1 5.91-2.22l.44 2.29a18.9 18.9 0 0 0-6.16 2.15zM588.76 161.09v.13h-2.5a6.16 6.16 0 0 1-.31-1 11.11 11.11 0 0 1-5 1.31c-3.72 0-5.85-1.78-5.85-5.13 0-3.07 2.63-5.13 7-5.13a20.77 20.77 0 0 1 3.44.25v-.69c0-2.69-1.5-3.91-4-3.91a14.25 14.25 0 0 0-4.88.88l-.78-2a15.64 15.64 0 0 1 5.85-1.19 6.56 6.56 0 0 1 4.88 1.63 5.8 5.8 0 0 1 1.39 4.36v5.63a14.63 14.63 0 0 0 .76 4.86zm-7.51-1.82a9 9 0 0 0 4.26-1v-4.69a16 16 0 0 0-3.38-.28c-3 0-4.41 1.19-4.41 3.13s1.21 2.84 3.53 2.84zM604.19 145.66l-.72 2a12.62 12.62 0 0 0-4.57-.85c-2.07 0-3.35.81-3.35 2.1s.63 2.07 3.54 2.82c4.51 1.16 6.13 2.57 6.13 5.07 0 2.88-2.47 4.73-6.63 4.73a20.3 20.3 0 0 1-6.2-1.06l.72-2a18.53 18.53 0 0 0 5.48.88c2.72 0 4.1-.88 4.1-2.41 0-1.19-1-2.13-4.41-3-4.1-1-5.26-2.54-5.26-4.82 0-2.57 2.25-4.51 5.88-4.51a14.1 14.1 0 0 1 5.29 1.05zM617.9 160.93a9.6 9.6 0 0 1-3.19.59 4.38 4.38 0 0 1-3.13-1.06 4.49 4.49 0 0 1-1.1-3.38v-9.92h-2.69v-2.22h2.69v-4.1H613v4.1h4.13v2.22H613v9.64c0 1.75.75 2.5 2.1 2.5a8.6 8.6 0 0 0 2.32-.41zM636.18 153.07c0 5-3.57 8.45-8 8.45s-8-3.41-8-8.45 3.57-8.45 8-8.45 8 3.38 8 8.45zm-2.63 0c0-3.85-2.28-6.17-5.41-6.17s-5.41 2.32-5.41 6.17 2.29 6.17 5.41 6.17 5.41-2.32 5.41-6.17z"/></g></g></svg>