<svg xmlns="http://www.w3.org/2000/svg" viewBox="0 0 420 96" role="img" aria-labelledby="title">
  <title>VR Sverige AB</title>
  <rect width="420" height="96" fill="#fff"/>
  <g transform="translate(16 17)">
    <path fill="#00a149" fill-rule="evenodd" d="M52.156 43.844c-3.436 0-4.936-1.703-5.936-3.31l-.604-.979c-1.017-1.715-2.058-2.845-4.959-2.845h-7.371l2.596-4.204c.749-1.214 2.306-3.276 5.965-3.276h8.53c.735 0 2.242-.626 2.242-2.284 0-1.762-1.511-2.317-2.242-2.317H39.19c-3.866 0-5.347 2.32-5.939 3.284l-7.779 12.585c-1.297 2.128-3.177 3.338-5.527 3.338-2.337 0-4.23-1.363-5.523-3.338L0 17.156h5.888c2.952 0 4.75 1.324 5.962 3.291l8.074 13.065 8.06-13.055c.985-1.648 2.685-3.3 5.969-3.3h17.653c5.192 0 9.394 4.33 9.394 9.79 0 4.57-2.834 8.339-6.836 9.472l-.358.102 4.526 7.323z" clip-rule="evenodd"/>
  </g>
  <text x="98" y="46" fill="#00a149" font-family="Arial, Helvetica, sans-serif" font-size="42" font-weight="700">VR</text>
  <text x="160" y="46" fill="#005b2e" font-family="Arial, Helvetica, sans-serif" font-size="22" font-weight="700">Sverige AB</text>
</svg>
