<svg id="Layer_1" data-name="Layer 1" xmlns="http://www.w3.org/2000/svg" viewBox="0 0 316.34 131.43"><defs><style>.cls-1{fill:#14b250;}</style></defs><title>logo green</title><path class="cls-1" d="M273.23,134.71c-17.82,0-25.6-8.39-30.78-16.31l-3.14-4.82c-5.27-8.44-10.67-14-25.71-14H175.37l13.47-20.7c3.88-6,11.95-16.13,30.92-16.13H264c3.81,0,11.63-3.09,11.63-11.25,0-8.68-7.84-11.41-11.63-11.41H206c-20.06,0-27.73,11.43-30.8,16.17l-40.34,62c-6.73,10.48-16.48,16.44-28.67,16.44S84.26,128,77.55,118.23L2.76,3.28H33.29c15.31,0,24.63,6.52,30.92,16.21l41.87,64.34,41.79-64.3c5.11-8.11,13.93-16.25,31-16.25h91.54c26.93,0,48.72,21.33,48.72,48.21a47.77,47.77,0,0,1-35.45,46.65l-1.86.5,23.48,36.07Z" transform="translate(-2.76 -3.28)"/></svg>